<?xml version="1.0" encoding="UTF-8"?>
<svg xmlns="http://www.w3.org/2000/svg" xmlns:xlink="http://www.w3.org/1999/xlink" width="281.2pt" height="158.04pt" viewBox="0 0 281.2 158.04" version="1.1">
<defs>
<clipPath id="clip1">
  <path d="M 0 0 L 281.199219 0 L 281.199219 158.039063 L 0 158.039063 Z M 0 0 "/>
</clipPath>
<clipPath id="clip2">
  <path d="M 0 0 L 281.199219 0 L 281.199219 158.039063 L 0 158.039063 Z M 0 0 "/>
</clipPath>
<clipPath id="clip3">
  <path d="M 0 0 L 139 0 L 139 158.039063 L 0 158.039063 Z M 0 0 "/>
</clipPath>
<clipPath id="clip4">
  <path d="M 0 5 L 198 5 L 198 158.039063 L 0 158.039063 Z M 0 5 "/>
</clipPath>
<clipPath id="clip5">
  <path d="M 49 4 L 281.199219 4 L 281.199219 158.039063 L 49 158.039063 Z M 49 4 "/>
</clipPath>
<clipPath id="clip6">
  <path d="M 133 4 L 281.199219 4 L 281.199219 158.039063 L 133 158.039063 Z M 133 4 "/>
</clipPath>
<clipPath id="clip7">
  <path d="M 0 0 L 136 0 L 136 158.039063 L 0 158.039063 Z M 0 0 "/>
</clipPath>
<clipPath id="clip8">
  <path d="M 0 2 L 195 2 L 195 158.039063 L 0 158.039063 Z M 0 2 "/>
</clipPath>
<clipPath id="clip9">
  <path d="M 46 0 L 281 0 L 281 158.039063 L 46 158.039063 Z M 46 0 "/>
</clipPath>
<clipPath id="clip10">
  <path d="M 129 0 L 281.199219 0 L 281.199219 158.039063 L 129 158.039063 Z M 129 0 "/>
</clipPath>
</defs>
<g id="surface1">
<path style=" stroke:none;fill-rule:nonzero;fill:rgb(100%,82.699585%,52.89917%);fill-opacity:1;" d="M 260.609375 59.160156 L 181.414063 59.160156 L 183.226563 47.734375 C 183.542969 47.78125 183.863281 47.828125 184.191406 47.828125 C 187.601563 47.828125 190.367188 45.066406 190.367188 41.65625 C 190.367188 38.246094 187.601563 35.480469 184.191406 35.480469 C 180.78125 35.480469 178.019531 38.246094 178.019531 41.65625 C 178.019531 44.113281 179.464844 46.21875 181.542969 47.210938 L 175.984375 59.160156 L 169.777344 72.5 L 168.285156 59.160156 L 166.589844 44.003906 C 169.925781 43.675781 172.542969 40.894531 172.542969 37.476563 C 172.542969 33.835938 169.589844 30.882813 165.949219 30.882813 C 162.308594 30.882813 159.355469 33.835938 159.355469 37.476563 C 159.355469 40.304688 161.152344 42.699219 163.660156 43.632813 L 158.109375 59.160156 L 153.558594 71.890625 L 150.523438 59.160156 L 146.773438 43.414063 C 149.984375 42.679688 152.382813 39.820313 152.382813 36.390625 C 152.382813 32.402344 149.15625 29.171875 145.164063 29.171875 C 141.179688 29.171875 137.949219 32.402344 137.949219 36.390625 C 137.949219 39.792969 140.3125 42.625 143.472656 43.390625 L 139.949219 59.160156 L 136.980469 72.441406 L 132.234375 59.160156 L 126.675781 43.605469 C 129.128906 42.644531 130.875 40.269531 130.875 37.476563 C 130.875 33.835938 127.925781 30.882813 124.28125 30.882813 C 120.640625 30.882813 117.6875 33.835938 117.6875 37.476563 C 117.6875 40.84375 120.230469 43.59375 123.492188 43.988281 L 121.796875 59.160156 L 120.371094 71.941406 L 114.421875 59.160156 L 108.636719 46.730469 C 110.695313 45.730469 112.125 43.636719 112.125 41.195313 C 112.125 37.785156 109.359375 35.019531 105.949219 35.019531 C 102.539063 35.019531 99.777344 37.785156 99.777344 41.195313 C 99.777344 44.605469 102.539063 47.367188 105.949219 47.367188 C 106.285156 47.367188 106.609375 47.320313 106.933594 47.269531 L 108.820313 59.160156 L 24.3125 59.160156 C 14.992188 59.160156 7.4375 66.714844 7.4375 76.035156 L 7.4375 137.449219 C 7.4375 146.769531 14.992188 154.324219 24.3125 154.324219 L 260.609375 154.324219 C 269.925781 154.324219 277.480469 146.769531 277.480469 137.449219 L 277.480469 76.035156 C 277.480469 66.714844 269.925781 59.160156 260.609375 59.160156 "/>
<g clip-path="url(#clip1)" clip-rule="nonzero">
<path style="fill:none;stroke-width:74.3072;stroke-linecap:butt;stroke-linejoin:miter;stroke:rgb(100%,82.699585%,52.89917%);stroke-opacity:1;stroke-miterlimit:10;" d="M 2606.09375 988.798437 L 1814.140625 988.798437 L 1832.265625 1103.05625 C 1835.429688 1102.5875 1838.632813 1102.11875 1841.914063 1102.11875 C 1876.015625 1102.11875 1903.671875 1129.735937 1903.671875 1163.8375 C 1903.671875 1197.939062 1876.015625 1225.595312 1841.914063 1225.595312 C 1807.8125 1225.595312 1780.195313 1197.939062 1780.195313 1163.8375 C 1780.195313 1139.267187 1794.648438 1118.2125 1815.429688 1108.290625 L 1759.84375 988.798437 L 1697.773438 855.4 L 1682.851563 988.798437 L 1665.898438 1140.360937 C 1699.257813 1143.642187 1725.429688 1171.454687 1725.429688 1205.634375 C 1725.429688 1242.040625 1695.898438 1271.571875 1659.492188 1271.571875 C 1623.085938 1271.571875 1593.554688 1242.040625 1593.554688 1205.634375 C 1593.554688 1177.353125 1611.523438 1153.407812 1636.601563 1144.071875 L 1581.09375 988.798437 L 1535.585938 861.49375 L 1505.234375 988.798437 L 1467.734375 1146.259375 C 1499.84375 1153.603125 1523.828125 1182.196875 1523.828125 1216.49375 C 1523.828125 1256.376562 1491.5625 1288.68125 1451.640625 1288.68125 C 1411.796875 1288.68125 1379.492188 1256.376562 1379.492188 1216.49375 C 1379.492188 1182.470312 1403.125 1154.15 1434.726563 1146.49375 L 1399.492188 988.798437 L 1369.804688 855.985937 L 1322.34375 988.798437 L 1266.757813 1144.345312 C 1291.289063 1153.954687 1308.75 1177.704687 1308.75 1205.634375 C 1308.75 1242.040625 1279.257813 1271.571875 1242.8125 1271.571875 C 1206.40625 1271.571875 1176.875 1242.040625 1176.875 1205.634375 C 1176.875 1171.9625 1202.304688 1144.4625 1234.921875 1140.517187 L 1217.96875 988.798437 L 1203.710938 860.985937 L 1144.21875 988.798437 L 1086.367188 1113.095312 C 1106.953125 1123.095312 1121.25 1144.032812 1121.25 1168.446875 C 1121.25 1202.548437 1093.59375 1230.204687 1059.492188 1230.204687 C 1025.390625 1230.204687 997.773438 1202.548437 997.773438 1168.446875 C 997.773438 1134.345312 1025.390625 1106.728125 1059.492188 1106.728125 C 1062.851563 1106.728125 1066.09375 1107.196875 1069.335938 1107.704687 L 1088.203125 988.798437 L 243.125 988.798437 C 149.921875 988.798437 74.375 913.251562 74.375 820.048437 L 74.375 205.907812 C 74.375 112.704687 149.921875 37.157812 243.125 37.157812 L 2606.09375 37.157812 C 2699.257813 37.157812 2774.804688 112.704687 2774.804688 205.907812 L 2774.804688 820.048437 C 2774.804688 913.251562 2699.257813 988.798437 2606.09375 988.798437 Z M 2606.09375 988.798437 " transform="matrix(0.1,0,0,-0.1,0,158.04)"/>
</g>
<path style=" stroke:none;fill-rule:nonzero;fill:rgb(100%,100%,100%);fill-opacity:1;" d="M 256.886719 54.140625 L 177.691406 54.140625 L 179.503906 42.710938 C 179.820313 42.761719 180.140625 42.808594 180.46875 42.808594 C 183.878906 42.808594 186.644531 40.046875 186.644531 36.636719 C 186.644531 33.226563 183.878906 30.460938 180.46875 30.460938 C 177.058594 30.460938 174.296875 33.226563 174.296875 36.636719 C 174.296875 39.09375 175.742188 41.199219 177.820313 42.191406 L 172.261719 54.140625 L 166.054688 67.480469 L 164.5625 54.140625 L 162.867188 38.980469 C 166.203125 38.652344 168.820313 35.871094 168.820313 32.453125 C 168.820313 28.8125 165.867188 25.863281 162.226563 25.863281 C 158.585938 25.863281 155.632813 28.8125 155.632813 32.453125 C 155.632813 35.285156 157.429688 37.679688 159.9375 38.613281 L 154.386719 54.140625 L 149.835938 66.867188 L 146.800781 54.140625 L 143.050781 38.394531 C 146.261719 37.660156 148.660156 34.800781 148.660156 31.371094 C 148.660156 27.382813 145.433594 24.152344 141.441406 24.152344 C 137.457031 24.152344 134.226563 27.382813 134.226563 31.371094 C 134.226563 34.769531 136.589844 37.605469 139.753906 38.367188 L 136.226563 54.140625 L 133.257813 67.421875 L 128.515625 54.140625 L 122.953125 38.582031 C 125.40625 37.621094 127.152344 35.25 127.152344 32.453125 C 127.152344 28.8125 124.203125 25.863281 120.5625 25.863281 C 116.917969 25.863281 113.964844 28.8125 113.964844 32.453125 C 113.964844 35.824219 116.507813 38.570313 119.769531 38.96875 L 118.074219 54.140625 L 116.648438 66.917969 L 110.699219 54.140625 L 104.914063 41.710938 C 106.972656 40.710938 108.402344 38.617188 108.402344 36.175781 C 108.402344 32.765625 105.636719 30 102.230469 30 C 98.820313 30 96.054688 32.765625 96.054688 36.175781 C 96.054688 39.585938 98.820313 42.347656 102.230469 42.347656 C 102.5625 42.347656 102.890625 42.300781 103.210938 42.246094 L 105.097656 54.140625 L 20.589844 54.140625 C 11.269531 54.140625 3.714844 61.695313 3.714844 71.015625 L 3.714844 132.433594 C 3.714844 141.75 11.269531 149.308594 20.589844 149.308594 L 256.886719 149.308594 C 266.203125 149.308594 273.757813 141.75 273.757813 132.433594 L 273.757813 71.015625 C 273.757813 61.695313 266.203125 54.140625 256.886719 54.140625 "/>
<g clip-path="url(#clip2)" clip-rule="nonzero">
<path style="fill:none;stroke-width:74.3072;stroke-linecap:butt;stroke-linejoin:miter;stroke:rgb(100%,100%,100%);stroke-opacity:1;stroke-miterlimit:10;" d="M 2568.867188 1038.99375 L 1776.914063 1038.99375 L 1795.039063 1153.290625 C 1798.203125 1152.782812 1801.40625 1152.314062 1804.6875 1152.314062 C 1838.789063 1152.314062 1866.445313 1179.93125 1866.445313 1214.032812 C 1866.445313 1248.134375 1838.789063 1275.790625 1804.6875 1275.790625 C 1770.585938 1275.790625 1742.96875 1248.134375 1742.96875 1214.032812 C 1742.96875 1189.4625 1757.421875 1168.407812 1778.203125 1158.485937 L 1722.617188 1038.99375 L 1660.546875 905.595312 L 1645.625 1038.99375 L 1628.671875 1190.595312 C 1662.03125 1193.876562 1688.203125 1221.689062 1688.203125 1255.86875 C 1688.203125 1292.275 1658.671875 1321.767187 1622.265625 1321.767187 C 1585.859375 1321.767187 1556.328125 1292.275 1556.328125 1255.86875 C 1556.328125 1227.548437 1574.296875 1203.603125 1599.375 1194.267187 L 1543.867188 1038.99375 L 1498.359375 911.728125 L 1468.007813 1038.99375 L 1430.507813 1196.454687 C 1462.617188 1203.798437 1486.601563 1232.392187 1486.601563 1266.689062 C 1486.601563 1306.571875 1454.335938 1338.876562 1414.414063 1338.876562 C 1374.570313 1338.876562 1342.265625 1306.571875 1342.265625 1266.689062 C 1342.265625 1232.704687 1365.898438 1204.345312 1397.539063 1196.728125 L 1362.265625 1038.99375 L 1332.578125 906.18125 L 1285.15625 1038.99375 L 1229.53125 1194.579687 C 1254.0625 1204.189062 1271.523438 1227.9 1271.523438 1255.86875 C 1271.523438 1292.275 1242.03125 1321.767187 1205.625 1321.767187 C 1169.179688 1321.767187 1139.648438 1292.275 1139.648438 1255.86875 C 1139.648438 1222.157812 1165.078125 1194.696875 1197.695313 1190.7125 L 1180.742188 1038.99375 L 1166.484375 911.220312 L 1106.992188 1038.99375 L 1049.140625 1163.290625 C 1069.726563 1173.290625 1084.023438 1194.228125 1084.023438 1218.642187 C 1084.023438 1252.74375 1056.367188 1280.4 1022.304688 1280.4 C 988.203125 1280.4 960.546875 1252.74375 960.546875 1218.642187 C 960.546875 1184.540625 988.203125 1156.923437 1022.304688 1156.923437 C 1025.625 1156.923437 1028.90625 1157.392187 1032.109375 1157.939062 L 1050.976563 1038.99375 L 205.898438 1038.99375 C 112.695313 1038.99375 37.148438 963.446875 37.148438 870.24375 L 37.148438 256.064062 C 37.148438 162.9 112.695313 87.314062 205.898438 87.314062 L 2568.867188 87.314062 C 2662.03125 87.314062 2737.578125 162.9 2737.578125 256.064062 L 2737.578125 870.24375 C 2737.578125 963.446875 2662.03125 1038.99375 2568.867188 1038.99375 Z M 2568.867188 1038.99375 " transform="matrix(0.1,0,0,-0.1,0,158.04)"/>
</g>
<path style=" stroke:none;fill-rule:nonzero;fill:rgb(94.499207%,37.998962%,13.299561%);fill-opacity:1;" d="M 256.886719 54.140625 L 177.691406 54.140625 L 179.503906 42.710938 C 179.820313 42.761719 180.140625 42.808594 180.46875 42.808594 C 183.878906 42.808594 186.644531 40.046875 186.644531 36.636719 C 186.644531 33.226563 183.878906 30.460938 180.46875 30.460938 C 177.058594 30.460938 174.296875 33.226563 174.296875 36.636719 C 174.296875 39.09375 175.742188 41.199219 177.820313 42.191406 L 172.261719 54.140625 L 166.054688 67.480469 L 164.5625 54.140625 L 162.867188 38.980469 C 166.203125 38.652344 168.820313 35.871094 168.820313 32.453125 C 168.820313 28.8125 165.867188 25.863281 162.226563 25.863281 C 158.585938 25.863281 155.632813 28.8125 155.632813 32.453125 C 155.632813 35.285156 157.429688 37.679688 159.9375 38.613281 L 154.386719 54.140625 L 149.835938 66.867188 L 146.800781 54.140625 L 143.050781 38.394531 C 146.261719 37.660156 148.660156 34.800781 148.660156 31.371094 C 148.660156 27.382813 145.433594 24.152344 141.441406 24.152344 C 137.457031 24.152344 134.226563 27.382813 134.226563 31.371094 C 134.226563 34.769531 136.589844 37.605469 139.753906 38.367188 L 136.226563 54.140625 L 133.257813 67.421875 L 128.515625 54.140625 L 122.953125 38.582031 C 125.40625 37.621094 127.152344 35.25 127.152344 32.453125 C 127.152344 28.8125 124.203125 25.863281 120.5625 25.863281 C 116.917969 25.863281 113.964844 28.8125 113.964844 32.453125 C 113.964844 35.824219 116.507813 38.570313 119.769531 38.96875 L 118.074219 54.140625 L 116.648438 66.917969 L 110.699219 54.140625 L 104.914063 41.710938 C 106.972656 40.710938 108.402344 38.617188 108.402344 36.175781 C 108.402344 32.765625 105.636719 30 102.230469 30 C 98.820313 30 96.054688 32.765625 96.054688 36.175781 C 96.054688 39.585938 98.820313 42.347656 102.230469 42.347656 C 102.5625 42.347656 102.890625 42.300781 103.210938 42.246094 L 105.097656 54.140625 L 20.589844 54.140625 C 11.269531 54.140625 3.714844 61.695313 3.714844 71.015625 L 3.714844 132.433594 C 3.714844 141.75 11.269531 149.308594 20.589844 149.308594 L 256.886719 149.308594 C 266.203125 149.308594 273.757813 141.75 273.757813 132.433594 L 273.757813 71.015625 C 273.757813 61.695313 266.203125 54.140625 256.886719 54.140625 "/>
<path style=" stroke:none;fill-rule:nonzero;fill:rgb(33.699036%,0%,0%);fill-opacity:1;" d="M 44.03125 67.015625 L 59.25 67.015625 L 59.25 109.667969 C 59.25 128.890625 50.039063 135.597656 35.324219 135.597656 C 31.71875 135.597656 27.113281 135 24.109375 133.996094 L 25.8125 121.683594 C 27.914063 122.386719 30.617188 122.886719 33.621094 122.886719 C 40.03125 122.886719 44.03125 119.980469 44.03125 109.566406 L 44.03125 67.015625 "/>
<g clip-path="url(#clip3)" clip-rule="nonzero">
<path style="fill:none;stroke-width:56.2457;stroke-linecap:butt;stroke-linejoin:miter;stroke:rgb(52.89917%,18.798828%,20.799255%);stroke-opacity:1;stroke-miterlimit:10;" d="M 440.3125 910.24375 L 592.5 910.24375 L 592.5 483.720312 C 592.5 291.49375 500.390625 224.423437 353.242188 224.423437 C 317.1875 224.423437 271.132813 230.4 241.09375 240.439062 L 258.125 363.564062 C 279.140625 356.532812 306.171875 351.532812 336.210938 351.532812 C 400.3125 351.532812 440.3125 380.595312 440.3125 484.735937 Z M 440.3125 910.24375 " transform="matrix(0.1,0,0,-0.1,0,158.04)"/>
</g>
<path style=" stroke:none;fill-rule:nonzero;fill:rgb(33.699036%,0%,0%);fill-opacity:1;" d="M 117.617188 118.78125 C 117.617188 125.1875 117.816406 130.394531 118.015625 134.496094 L 104.800781 134.496094 L 104.101563 127.589844 L 103.800781 127.589844 C 101.898438 130.59375 97.292969 135.597656 88.484375 135.597656 C 78.472656 135.597656 71.261719 129.390625 71.261719 114.273438 L 71.261719 85.539063 L 86.480469 85.539063 L 86.480469 111.871094 C 86.480469 118.980469 88.78125 123.285156 94.1875 123.285156 C 98.394531 123.285156 100.898438 120.382813 101.800781 117.980469 C 102.199219 117.078125 102.398438 115.976563 102.398438 114.675781 L 102.398438 85.539063 L 117.617188 85.539063 L 117.617188 118.78125 "/>
<g clip-path="url(#clip4)" clip-rule="nonzero">
<path style="fill:none;stroke-width:56.2457;stroke-linecap:butt;stroke-linejoin:miter;stroke:rgb(52.89917%,18.798828%,20.799255%);stroke-opacity:1;stroke-miterlimit:10;" d="M 1176.171875 392.5875 C 1176.171875 328.525 1178.164063 276.454687 1180.15625 235.439062 L 1048.007813 235.439062 L 1041.015625 304.501562 L 1038.007813 304.501562 C 1018.984375 274.4625 972.929688 224.423437 884.84375 224.423437 C 784.726563 224.423437 712.617188 286.49375 712.617188 437.665625 L 712.617188 725.009375 L 864.804688 725.009375 L 864.804688 461.689062 C 864.804688 390.595312 887.8125 347.548437 941.875 347.548437 C 983.945313 347.548437 1008.984375 376.571875 1018.007813 400.595312 C 1021.992188 409.61875 1023.984375 420.634375 1023.984375 433.642187 L 1023.984375 725.009375 L 1176.171875 725.009375 Z M 1176.171875 392.5875 " transform="matrix(0.1,0,0,-0.1,0,158.04)"/>
</g>
<path style=" stroke:none;fill-rule:nonzero;fill:rgb(33.699036%,0%,0%);fill-opacity:1;" d="M 129.828125 101.160156 C 129.828125 95.050781 129.628906 89.945313 129.429688 85.539063 L 142.34375 85.539063 L 142.945313 92.148438 L 143.242188 92.148438 C 145.34375 88.945313 149.75 84.335938 158.058594 84.335938 C 164.46875 84.335938 169.371094 87.644531 171.472656 92.75 L 171.675781 92.75 C 173.578125 90.148438 175.679688 88.144531 178.082031 86.742188 C 180.785156 85.242188 183.789063 84.335938 187.394531 84.335938 C 196.804688 84.335938 203.910156 90.949219 203.910156 105.664063 L 203.910156 134.496094 L 189.09375 134.496094 L 189.09375 107.867188 C 189.09375 100.761719 186.792969 96.652344 181.886719 96.652344 C 178.28125 96.652344 175.878906 99.054688 174.777344 101.960938 C 174.480469 103.058594 174.28125 104.5625 174.28125 105.867188 L 174.28125 134.496094 L 159.460938 134.496094 L 159.460938 106.96875 C 159.460938 100.859375 157.257813 96.652344 152.351563 96.652344 C 148.449219 96.652344 146.148438 99.65625 145.246094 102.058594 C 144.746094 103.265625 144.644531 104.660156 144.644531 105.964844 L 144.644531 134.496094 L 129.828125 134.496094 L 129.828125 101.160156 "/>
<g clip-path="url(#clip5)" clip-rule="nonzero">
<path style="fill:none;stroke-width:56.2457;stroke-linecap:butt;stroke-linejoin:miter;stroke:rgb(52.89917%,18.798828%,20.799255%);stroke-opacity:1;stroke-miterlimit:10;" d="M 1298.28125 568.798437 C 1298.28125 629.892187 1296.289063 680.946875 1294.296875 725.009375 L 1423.4375 725.009375 L 1429.453125 658.915625 L 1432.421875 658.915625 C 1453.4375 690.946875 1497.5 737.040625 1580.585938 737.040625 C 1644.6875 737.040625 1693.710938 703.954687 1714.726563 652.9 L 1716.757813 652.9 C 1735.78125 678.915625 1756.796875 698.954687 1780.820313 712.978125 C 1807.851563 727.978125 1837.890625 737.040625 1873.945313 737.040625 C 1968.046875 737.040625 2039.101563 670.907812 2039.101563 523.759375 L 2039.101563 235.439062 L 1890.9375 235.439062 L 1890.9375 501.728125 C 1890.9375 572.782812 1867.929688 613.876562 1818.867188 613.876562 C 1782.8125 613.876562 1758.789063 589.853125 1747.773438 560.790625 C 1744.804688 549.814062 1742.8125 534.775 1742.8125 521.728125 L 1742.8125 235.439062 L 1594.609375 235.439062 L 1594.609375 510.7125 C 1594.609375 571.80625 1572.578125 613.876562 1523.515625 613.876562 C 1484.492188 613.876562 1461.484375 583.8375 1452.460938 559.814062 C 1447.460938 547.74375 1446.445313 533.798437 1446.445313 520.751562 L 1446.445313 235.439062 L 1298.28125 235.439062 Z M 1298.28125 568.798437 " transform="matrix(0.1,0,0,-0.1,0,158.04)"/>
</g>
<path style=" stroke:none;fill-rule:nonzero;fill:rgb(33.699036%,0%,0%);fill-opacity:1;" d="M 241.953125 111.371094 C 233.941406 111.371094 227.738281 113.273438 227.738281 119.078125 C 227.738281 122.984375 230.339844 124.886719 233.742188 124.886719 C 237.449219 124.886719 240.652344 122.386719 241.652344 119.28125 C 241.851563 118.480469 241.953125 117.578125 241.953125 116.679688 Z M 256.667969 122.683594 C 256.667969 127.289063 256.871094 131.796875 257.46875 134.496094 L 243.753906 134.496094 L 242.851563 129.59375 L 242.550781 129.59375 C 239.347656 133.496094 234.34375 135.597656 228.535156 135.597656 C 218.625 135.597656 212.71875 128.390625 212.71875 120.582031 C 212.71875 107.867188 224.132813 101.859375 241.449219 101.859375 L 241.449219 101.261719 C 241.449219 98.554688 240.050781 94.851563 232.542969 94.851563 C 227.535156 94.851563 222.230469 96.554688 219.023438 98.554688 L 216.222656 88.746094 C 219.628906 86.84375 226.335938 84.335938 235.242188 84.335938 C 251.5625 84.335938 256.667969 93.949219 256.667969 105.5625 L 256.667969 122.683594 "/>
<g clip-path="url(#clip6)" clip-rule="nonzero">
<path style="fill:none;stroke-width:56.2457;stroke-linecap:butt;stroke-linejoin:miter;stroke:rgb(52.89917%,18.798828%,20.799255%);stroke-opacity:1;stroke-miterlimit:10;" d="M 2419.53125 466.689062 C 2339.414063 466.689062 2277.382813 447.665625 2277.382813 389.61875 C 2277.382813 350.55625 2303.398438 331.532812 2337.421875 331.532812 C 2374.492188 331.532812 2406.523438 356.532812 2416.523438 387.5875 C 2418.515625 395.595312 2419.53125 404.61875 2419.53125 413.603125 Z M 2566.679688 353.564062 C 2566.679688 307.509375 2568.710938 262.43125 2574.6875 235.439062 L 2437.539063 235.439062 L 2428.515625 284.4625 L 2425.507813 284.4625 C 2393.476563 245.439062 2343.4375 224.423437 2285.351563 224.423437 C 2186.25 224.423437 2127.1875 296.49375 2127.1875 374.579687 C 2127.1875 501.728125 2241.328125 561.80625 2414.492188 561.80625 L 2414.492188 567.782812 C 2414.492188 594.853125 2400.507813 631.884375 2325.429688 631.884375 C 2275.351563 631.884375 2222.304688 614.853125 2190.234375 594.853125 L 2162.226563 692.939062 C 2196.289063 711.9625 2263.359375 737.040625 2352.421875 737.040625 C 2515.625 737.040625 2566.679688 640.907812 2566.679688 524.775 Z M 2566.679688 353.564062 " transform="matrix(0.1,0,0,-0.1,0,158.04)"/>
</g>
<path style=" stroke:none;fill-rule:nonzero;fill:rgb(100%,100%,100%);fill-opacity:1;" d="M 40.84375 63.03125 L 56.058594 63.03125 L 56.058594 105.679688 C 56.058594 124.902344 46.851563 131.609375 32.132813 131.609375 C 28.527344 131.609375 23.921875 131.011719 20.921875 130.007813 L 22.621094 117.695313 C 24.722656 118.394531 27.425781 118.894531 30.429688 118.894531 C 36.839844 118.894531 40.84375 115.992188 40.84375 105.578125 L 40.84375 63.03125 "/>
<g clip-path="url(#clip7)" clip-rule="nonzero">
<path style="fill:none;stroke-width:56.2457;stroke-linecap:butt;stroke-linejoin:miter;stroke:rgb(100%,100%,100%);stroke-opacity:1;stroke-miterlimit:10;" d="M 408.4375 950.0875 L 560.585938 950.0875 L 560.585938 523.603125 C 560.585938 331.376562 468.515625 264.30625 321.328125 264.30625 C 285.273438 264.30625 239.21875 270.282812 209.21875 280.321875 L 226.210938 403.446875 C 247.226563 396.454687 274.257813 391.454687 304.296875 391.454687 C 368.398438 391.454687 408.4375 420.478125 408.4375 524.61875 Z M 408.4375 950.0875 " transform="matrix(0.1,0,0,-0.1,0,158.04)"/>
</g>
<path style=" stroke:none;fill-rule:nonzero;fill:rgb(100%,100%,100%);fill-opacity:1;" d="M 114.425781 114.792969 C 114.425781 121.199219 114.625 126.402344 114.824219 130.511719 L 101.609375 130.511719 L 100.910156 123.601563 L 100.609375 123.601563 C 98.707031 126.605469 94.101563 131.609375 85.289063 131.609375 C 75.28125 131.609375 68.074219 125.402344 68.074219 110.285156 L 68.074219 81.550781 L 83.289063 81.550781 L 83.289063 107.882813 C 83.289063 114.992188 85.589844 119.296875 90.996094 119.296875 C 95.203125 119.296875 97.707031 116.390625 98.605469 113.988281 C 99.007813 113.089844 99.207031 111.988281 99.207031 110.683594 L 99.207031 81.550781 L 114.425781 81.550781 L 114.425781 114.792969 "/>
<g clip-path="url(#clip8)" clip-rule="nonzero">
<path style="fill:none;stroke-width:56.2457;stroke-linecap:butt;stroke-linejoin:miter;stroke:rgb(100%,100%,100%);stroke-opacity:1;stroke-miterlimit:10;" d="M 1144.257813 432.470312 C 1144.257813 368.407812 1146.25 316.376562 1148.242188 275.282812 L 1016.09375 275.282812 L 1009.101563 344.384375 L 1006.09375 344.384375 C 987.070313 314.345312 941.015625 264.30625 852.890625 264.30625 C 752.8125 264.30625 680.742188 326.376562 680.742188 477.548437 L 680.742188 764.892187 L 832.890625 764.892187 L 832.890625 501.571875 C 832.890625 430.478125 855.898438 387.43125 909.960938 387.43125 C 952.03125 387.43125 977.070313 416.49375 986.054688 440.517187 C 990.078125 449.501562 992.070313 460.517187 992.070313 473.564062 L 992.070313 764.892187 L 1144.257813 764.892187 Z M 1144.257813 432.470312 " transform="matrix(0.1,0,0,-0.1,0,158.04)"/>
</g>
<path style=" stroke:none;fill-rule:nonzero;fill:rgb(100%,100%,100%);fill-opacity:1;" d="M 126.636719 97.171875 C 126.636719 91.0625 126.4375 85.957031 126.238281 81.550781 L 139.152344 81.550781 L 139.753906 88.160156 L 140.050781 88.160156 C 142.152344 84.957031 146.558594 80.351563 154.871094 80.351563 C 161.277344 80.351563 166.179688 83.65625 168.285156 88.761719 L 168.484375 88.761719 C 170.386719 86.15625 172.488281 84.15625 174.890625 82.753906 C 177.59375 81.253906 180.597656 80.351563 184.199219 80.351563 C 193.613281 80.351563 200.71875 86.957031 200.71875 101.675781 L 200.71875 130.511719 L 185.902344 130.511719 L 185.902344 103.878906 C 185.902344 96.769531 183.601563 92.664063 178.695313 92.664063 C 175.089844 92.664063 172.6875 95.066406 171.585938 97.96875 C 171.285156 99.070313 171.085938 100.574219 171.085938 101.878906 L 171.085938 130.511719 L 156.269531 130.511719 L 156.269531 102.976563 C 156.269531 96.871094 154.066406 92.664063 149.160156 92.664063 C 145.257813 92.664063 142.953125 95.667969 142.054688 98.070313 C 141.554688 99.273438 141.453125 100.675781 141.453125 101.976563 L 141.453125 130.511719 L 126.636719 130.511719 L 126.636719 97.171875 "/>
<g clip-path="url(#clip9)" clip-rule="nonzero">
<path style="fill:none;stroke-width:56.2457;stroke-linecap:butt;stroke-linejoin:miter;stroke:rgb(100%,100%,100%);stroke-opacity:1;stroke-miterlimit:10;" d="M 1266.367188 608.68125 C 1266.367188 669.775 1264.375 720.829687 1262.382813 764.892187 L 1391.523438 764.892187 L 1397.539063 698.798437 L 1400.507813 698.798437 C 1421.523438 730.829687 1465.585938 776.884375 1548.710938 776.884375 C 1612.773438 776.884375 1661.796875 743.8375 1682.851563 692.782812 L 1684.84375 692.782812 C 1703.867188 718.8375 1724.882813 738.8375 1748.90625 752.860937 C 1775.9375 767.860937 1805.976563 776.884375 1841.992188 776.884375 C 1936.132813 776.884375 2007.1875 710.829687 2007.1875 563.642187 L 2007.1875 275.282812 L 1859.023438 275.282812 L 1859.023438 541.610937 C 1859.023438 612.704687 1836.015625 653.759375 1786.953125 653.759375 C 1750.898438 653.759375 1726.875 629.735937 1715.859375 600.7125 C 1712.851563 589.696875 1710.859375 574.657812 1710.859375 561.610937 L 1710.859375 275.282812 L 1562.695313 275.282812 L 1562.695313 550.634375 C 1562.695313 611.689062 1540.664063 653.759375 1491.601563 653.759375 C 1452.578125 653.759375 1429.53125 623.720312 1420.546875 599.696875 C 1415.546875 587.665625 1414.53125 573.642187 1414.53125 560.634375 L 1414.53125 275.282812 L 1266.367188 275.282812 Z M 1266.367188 608.68125 " transform="matrix(0.1,0,0,-0.1,0,158.04)"/>
</g>
<path style=" stroke:none;fill-rule:nonzero;fill:rgb(100%,100%,100%);fill-opacity:1;" d="M 238.761719 107.382813 C 230.75 107.382813 224.542969 109.28125 224.542969 115.09375 C 224.542969 118.996094 227.148438 120.898438 230.550781 120.898438 C 234.253906 120.898438 237.457031 118.394531 238.460938 115.292969 C 238.660156 114.492188 238.761719 113.589844 238.761719 112.6875 Z M 253.476563 118.695313 C 253.476563 123.300781 253.679688 127.808594 254.277344 130.511719 L 240.5625 130.511719 L 239.664063 125.605469 L 239.359375 125.605469 C 236.15625 129.507813 231.152344 131.609375 225.34375 131.609375 C 215.433594 131.609375 209.527344 124.402344 209.527344 116.59375 C 209.527344 103.878906 220.941406 97.871094 238.261719 97.871094 L 238.261719 97.269531 C 238.261719 94.566406 236.859375 90.863281 229.351563 90.863281 C 224.34375 90.863281 219.039063 92.5625 215.835938 94.566406 L 213.03125 84.757813 C 216.4375 82.851563 223.144531 80.351563 232.050781 80.351563 C 248.371094 80.351563 253.476563 89.964844 253.476563 101.574219 L 253.476563 118.695313 "/>
<g clip-path="url(#clip10)" clip-rule="nonzero">
<path style="fill:none;stroke-width:56.2457;stroke-linecap:butt;stroke-linejoin:miter;stroke:rgb(100%,100%,100%);stroke-opacity:1;stroke-miterlimit:10;" d="M 2387.617188 506.571875 C 2307.5 506.571875 2245.429688 487.5875 2245.429688 429.4625 C 2245.429688 390.439062 2271.484375 371.415625 2305.507813 371.415625 C 2342.539063 371.415625 2374.570313 396.454687 2384.609375 427.470312 C 2386.601563 435.478125 2387.617188 444.501562 2387.617188 453.525 Z M 2534.765625 393.446875 C 2534.765625 347.392187 2536.796875 302.314062 2542.773438 275.282812 L 2405.625 275.282812 L 2396.640625 324.345312 L 2393.59375 324.345312 C 2361.5625 285.321875 2311.523438 264.30625 2253.4375 264.30625 C 2154.335938 264.30625 2095.273438 336.376562 2095.273438 414.4625 C 2095.273438 541.610937 2209.414063 601.689062 2382.617188 601.689062 L 2382.617188 607.704687 C 2382.617188 634.735937 2368.59375 671.767187 2293.515625 671.767187 C 2243.4375 671.767187 2190.390625 654.775 2158.359375 634.735937 L 2130.3125 732.821875 C 2164.375 751.884375 2231.445313 776.884375 2320.507813 776.884375 C 2483.710938 776.884375 2534.765625 680.751562 2534.765625 564.657812 Z M 2534.765625 393.446875 " transform="matrix(0.1,0,0,-0.1,0,158.04)"/>
</g>
<path style=" stroke:none;fill-rule:nonzero;fill:rgb(100%,100%,100%);fill-opacity:1;" d="M 262.050781 64.210938 L 261.257813 64.210938 L 261.257813 65.535156 L 262.050781 65.535156 C 262.476563 65.535156 262.757813 65.226563 262.757813 64.871094 C 262.757813 64.511719 262.476563 64.210938 262.050781 64.210938 Z M 262.730469 68.367188 L 261.796875 66.390625 L 261.257813 66.390625 L 261.257813 68.367188 L 260.121094 68.367188 L 260.121094 63.265625 L 262.203125 63.265625 C 263.230469 63.265625 263.894531 64.023438 263.894531 64.871094 C 263.894531 65.570313 263.441406 66.023438 262.953125 66.222656 L 264.027344 68.367188 Z M 261.871094 62.101563 C 259.796875 62.101563 258.214844 63.691406 258.214844 65.824219 C 258.214844 67.957031 259.796875 69.546875 261.871094 69.546875 C 263.933594 69.546875 265.523438 67.957031 265.523438 65.824219 C 265.523438 63.691406 263.933594 62.101563 261.871094 62.101563 Z M 261.871094 70.617188 C 259.222656 70.617188 257.070313 68.472656 257.070313 65.824219 C 257.070313 63.171875 259.222656 61.027344 261.871094 61.027344 C 264.519531 61.027344 266.660156 63.171875 266.660156 65.824219 C 266.660156 68.472656 264.519531 70.617188 261.871094 70.617188 "/>
<path style=" stroke:none;fill-rule:nonzero;fill:rgb(52.89917%,18.798828%,20.799255%);fill-opacity:1;" d="M 40.84375 63.03125 L 56.058594 63.03125 L 56.058594 105.679688 C 56.058594 124.902344 46.851563 131.609375 32.132813 131.609375 C 28.527344 131.609375 23.921875 131.011719 20.921875 130.007813 L 22.621094 117.695313 C 24.722656 118.394531 27.425781 118.894531 30.429688 118.894531 C 36.839844 118.894531 40.84375 115.992188 40.84375 105.578125 L 40.84375 63.03125 "/>
<path style=" stroke:none;fill-rule:nonzero;fill:rgb(52.89917%,18.798828%,20.799255%);fill-opacity:1;" d="M 114.425781 114.792969 C 114.425781 121.199219 114.625 126.402344 114.824219 130.511719 L 101.609375 130.511719 L 100.910156 123.601563 L 100.609375 123.601563 C 98.707031 126.605469 94.101563 131.609375 85.289063 131.609375 C 75.28125 131.609375 68.074219 125.402344 68.074219 110.285156 L 68.074219 81.550781 L 83.289063 81.550781 L 83.289063 107.882813 C 83.289063 114.992188 85.589844 119.296875 90.996094 119.296875 C 95.203125 119.296875 97.707031 116.390625 98.605469 113.988281 C 99.007813 113.089844 99.207031 111.988281 99.207031 110.683594 L 99.207031 81.550781 L 114.425781 81.550781 L 114.425781 114.792969 "/>
<path style=" stroke:none;fill-rule:nonzero;fill:rgb(52.89917%,18.798828%,20.799255%);fill-opacity:1;" d="M 126.636719 97.171875 C 126.636719 91.0625 126.4375 85.957031 126.238281 81.550781 L 139.152344 81.550781 L 139.753906 88.160156 L 140.050781 88.160156 C 142.152344 84.957031 146.558594 80.351563 154.871094 80.351563 C 161.277344 80.351563 166.179688 83.65625 168.285156 88.761719 L 168.484375 88.761719 C 170.386719 86.15625 172.488281 84.15625 174.890625 82.753906 C 177.59375 81.253906 180.597656 80.351563 184.199219 80.351563 C 193.613281 80.351563 200.71875 86.957031 200.71875 101.675781 L 200.71875 130.511719 L 185.902344 130.511719 L 185.902344 103.878906 C 185.902344 96.769531 183.601563 92.664063 178.695313 92.664063 C 175.089844 92.664063 172.6875 95.066406 171.585938 97.96875 C 171.285156 99.070313 171.085938 100.574219 171.085938 101.878906 L 171.085938 130.511719 L 156.269531 130.511719 L 156.269531 102.976563 C 156.269531 96.871094 154.066406 92.664063 149.160156 92.664063 C 145.257813 92.664063 142.953125 95.667969 142.054688 98.070313 C 141.554688 99.273438 141.453125 100.675781 141.453125 101.976563 L 141.453125 130.511719 L 126.636719 130.511719 L 126.636719 97.171875 "/>
<path style=" stroke:none;fill-rule:nonzero;fill:rgb(52.89917%,18.798828%,20.799255%);fill-opacity:1;" d="M 238.761719 107.382813 C 230.75 107.382813 224.542969 109.28125 224.542969 115.09375 C 224.542969 118.996094 227.148438 120.898438 230.550781 120.898438 C 234.253906 120.898438 237.457031 118.394531 238.460938 115.292969 C 238.660156 114.492188 238.761719 113.589844 238.761719 112.6875 Z M 253.476563 118.695313 C 253.476563 123.300781 253.679688 127.808594 254.277344 130.511719 L 240.5625 130.511719 L 239.664063 125.605469 L 239.359375 125.605469 C 236.15625 129.507813 231.152344 131.609375 225.34375 131.609375 C 215.433594 131.609375 209.527344 124.402344 209.527344 116.59375 C 209.527344 103.878906 220.941406 97.871094 238.261719 97.871094 L 238.261719 97.269531 C 238.261719 94.566406 236.859375 90.863281 229.351563 90.863281 C 224.34375 90.863281 219.039063 92.5625 215.835938 94.566406 L 213.03125 84.757813 C 216.4375 82.851563 223.144531 80.351563 232.050781 80.351563 C 248.371094 80.351563 253.476563 89.964844 253.476563 101.574219 L 253.476563 118.695313 "/>
<path style=" stroke:none;fill-rule:nonzero;fill:rgb(33.699036%,0%,0%);fill-opacity:1;" d="M 66.703125 28.269531 C 66.074219 28.921875 64.605469 29.859375 62.589844 30.546875 C 57.910156 32.140625 53.40625 30.371094 51.554688 24.929688 C 49.789063 19.734375 52.121094 15.039063 57.265625 13.289063 C 59.3125 12.59375 60.792969 12.585938 61.449219 12.660156 L 61.511719 14.621094 C 60.589844 14.492188 59.332031 14.59375 57.953125 15.0625 C 54.0625 16.382813 52.320313 19.75 53.796875 24.085938 C 55.179688 28.148438 58.398438 29.9375 62.410156 28.574219 C 63.742188 28.121094 64.980469 27.398438 65.699219 26.6875 L 66.703125 28.269531 "/>
<path style=" stroke:none;fill-rule:nonzero;fill:rgb(33.699036%,0%,0%);fill-opacity:1;" d="M 83.539063 16.9375 L 80.683594 12.429688 C 80.066406 11.398438 79.574219 10.445313 79.089844 9.515625 L 79.015625 9.535156 C 79.019531 10.574219 78.992188 11.703125 78.90625 12.820313 L 78.398438 18.148438 Z M 78.347656 19.980469 L 77.84375 25.761719 L 75.5625 26.300781 L 77.339844 7.871094 L 79.996094 7.246094 L 89.839844 22.933594 L 87.488281 23.488281 L 84.398438 18.554688 L 78.347656 19.980469 "/>
<path style=" stroke:none;fill-rule:nonzero;fill:rgb(33.699036%,0%,0%);fill-opacity:1;" d="M 97.109375 3.847656 L 106.445313 2.464844 L 106.726563 4.34375 L 99.652344 5.390625 L 100.503906 11.152344 L 107.039063 10.183594 L 107.3125 12.035156 L 100.777344 13.007813 L 101.941406 20.851563 L 99.679688 21.1875 L 97.109375 3.847656 "/>
<path style=" stroke:none;fill-rule:nonzero;fill:rgb(33.699036%,0%,0%);fill-opacity:1;" d="M 128.121094 9.800781 L 121.351563 10.292969 L 121.808594 16.597656 L 129.382813 16.046875 L 129.523438 17.9375 L 119.664063 18.65625 L 118.390625 1.175781 L 127.855469 0.484375 L 127.996094 2.378906 L 120.808594 2.902344 L 121.214844 8.425781 L 127.984375 7.933594 L 128.121094 9.800781 "/>
<path style=" stroke:none;fill-rule:nonzero;fill:rgb(33.699036%,0%,0%);fill-opacity:1;" d="M 143.785156 1.976563 L 138.453125 1.921875 L 138.476563 -0.00390625 L 151.449219 0.132813 L 151.429688 2.058594 L 146.074219 2 L 145.90625 17.601563 L 143.621094 17.578125 L 143.785156 1.976563 "/>
<path style=" stroke:none;fill-rule:nonzero;fill:rgb(33.699036%,0%,0%);fill-opacity:1;" d="M 167.894531 11.21875 L 166.515625 6.066406 C 166.234375 4.898438 166.046875 3.839844 165.859375 2.8125 L 165.785156 2.804688 C 165.476563 3.800781 165.113281 4.871094 164.703125 5.910156 L 162.628906 10.847656 Z M 162.039063 12.578125 L 159.832031 17.945313 L 157.496094 17.78125 L 164.679688 0.71875 L 167.402344 0.914063 L 172.125 18.820313 L 169.714844 18.648438 L 168.238281 13.019531 L 162.039063 12.578125 "/>
<path style=" stroke:none;fill-rule:nonzero;fill:rgb(33.699036%,0%,0%);fill-opacity:1;" d="M 185.710938 11.179688 L 187.996094 11.535156 C 190.386719 11.90625 192.105469 10.832031 192.414063 8.851563 C 192.757813 6.617188 191.292969 5.390625 188.929688 5.023438 C 187.847656 4.855469 187.085938 4.84375 186.6875 4.886719 Z M 184.695313 2.972656 C 185.859375 2.914063 187.527344 3.015625 189.042969 3.253906 C 191.433594 3.621094 192.929688 4.328125 193.859375 5.472656 C 194.589844 6.347656 194.921875 7.609375 194.710938 8.972656 C 194.359375 11.230469 192.660156 12.519531 190.765625 12.859375 L 190.753906 12.9375 C 191.992188 13.601563 192.597656 14.960938 192.753906 16.824219 C 192.945313 19.328125 193.097656 21.0625 193.328125 21.78125 L 191.015625 21.425781 C 190.8125 20.867188 190.65625 19.34375 190.527344 17.113281 C 190.382813 14.640625 189.574219 13.59375 187.554688 13.203125 L 185.449219 12.878906 L 184.285156 20.378906 L 182.050781 20.035156 L 184.695313 2.972656 "/>
<path style=" stroke:none;fill-rule:nonzero;fill:rgb(33.699036%,0%,0%);fill-opacity:1;" d="M 209.285156 7.230469 L 205.425781 24.332031 L 203.195313 23.828125 L 207.050781 6.726563 L 209.285156 7.230469 "/>
<path style=" stroke:none;fill-rule:nonzero;fill:rgb(33.699036%,0%,0%);fill-opacity:1;" d="M 226.851563 22.644531 L 226.667969 17.308594 C 226.65625 16.109375 226.714844 15.039063 226.761719 13.992188 L 226.6875 13.96875 C 226.167969 14.871094 225.570313 15.828125 224.933594 16.75 L 221.804688 21.089844 Z M 220.835938 22.644531 L 217.476563 27.378906 L 215.238281 26.691406 L 226.082031 11.6875 L 228.695313 12.492188 L 229.257813 31.003906 L 226.945313 30.289063 L 226.777344 24.472656 L 220.835938 22.644531 "/>
</g>
</svg>
